<svg className='logo' xmlns="http://www.w3.org/2000/svg" xmlns:xlink="http://www.w3.org/1999/xlink" width="100%" zoomAndPan="magnify" viewBox="0 0 375 374.999991" height="300" preserveAspectRatio="xMidYMid meet" version="1.0"><defs><g/></defs><g fill="#645df6" fill-opacity="1"><g transform="translate(41.007813, 219.749986)"><g><path d="M 19.585938 1.234375 C 43.492188 1.234375 52.050781 -9 52.050781 -30.964844 C 52.050781 -48.347656 41.289062 -61.753906 20.644531 -61.753906 C 10.058594 -61.753906 2.382812 -59.109375 2.382812 -53.109375 C 2.382812 -51.257812 2.824219 -49.933594 4.234375 -47.199219 C 6.792969 -42.523438 7.761719 -38.199219 7.761719 -31.671875 L 7.761719 -24.878906 C 7.761719 -20.46875 6.882812 -17.113281 4.5 -12 C 2.910156 -8.644531 2.382812 -6.882812 2.382812 -4.765625 C 2.382812 -0.175781 8.46875 1.234375 19.585938 1.234375 Z M 26.996094 -8.558594 C 21.527344 -8.558594 18.878906 -11.867188 18.878906 -20.601562 C 18.878906 -25.453125 18.792969 -37.671875 18.792969 -43.449219 C 18.792969 -50.242188 20.730469 -51.566406 23.910156 -51.566406 C 31.761719 -51.566406 37.496094 -43.625 37.496094 -30.523438 C 37.496094 -16.011719 33.699219 -8.558594 26.996094 -8.558594 Z M 26.996094 -8.558594 "/></g></g></g><g fill="#645df6" fill-opacity="1"><g transform="translate(95.262452, 219.749986)"><g><path d="M 11.46875 -48.082031 C 16.054688 -48.082031 20.730469 -50.550781 20.730469 -55.84375 C 20.730469 -59.816406 17.113281 -61.753906 12.96875 -61.753906 C 8.027344 -61.753906 2.558594 -58.933594 2.558594 -54.523438 C 2.558594 -50.375 6.96875 -48.082031 11.46875 -48.082031 Z M 10.058594 1.410156 C 15.085938 1.410156 20.46875 -1.234375 20.46875 -6 C 20.46875 -7.585938 19.851562 -8.820312 19.054688 -10.144531 C 17.910156 -12.175781 16.496094 -14.910156 16.496094 -21.4375 C 16.496094 -27.4375 17.734375 -29.023438 18.792969 -30.703125 C 19.410156 -31.582031 20.46875 -33.171875 20.46875 -35.378906 C 20.46875 -39.347656 16.851562 -41.289062 12.703125 -41.289062 C 7.761719 -41.289062 2.292969 -38.464844 2.292969 -34.054688 C 2.292969 -32.289062 3.175781 -31.140625 4.144531 -29.996094 C 5.382812 -28.496094 6.882812 -27.171875 6.882812 -21.085938 C 6.882812 -14.558594 5.292969 -11.644531 3.96875 -9.617188 C 3.441406 -8.820312 2.292969 -6.96875 2.292969 -4.585938 C 2.292969 -0.441406 5.910156 1.410156 10.058594 1.410156 Z M 10.058594 1.410156 "/></g></g></g><g fill="#645df6" fill-opacity="1"><g transform="translate(118.199374, 219.749986)"><g><path d="M 19.585938 1.410156 C 31.320312 1.410156 37.847656 -2.734375 37.847656 -11.203125 C 37.847656 -18.703125 31.230469 -21.703125 25.054688 -23.730469 C 19.496094 -25.496094 14.203125 -26.730469 14.203125 -31.40625 C 14.203125 -33.878906 16.234375 -35.289062 18.175781 -35.289062 C 20.203125 -35.289062 21.4375 -33.878906 21.878906 -31.40625 C 22.320312 -28.144531 23.644531 -26.289062 27.613281 -26.289062 C 31.230469 -26.289062 35.113281 -28.40625 35.113281 -32.554688 C 35.113281 -36.613281 30.964844 -41.289062 20.113281 -41.289062 C 12 -41.289062 4.058594 -38.113281 4.058594 -29.90625 C 4.058594 -22.230469 10.320312 -19.410156 16.054688 -17.554688 C 21.171875 -15.96875 25.847656 -15.175781 25.847656 -10.410156 C 25.847656 -6.617188 23.730469 -5.207031 21.527344 -5.207031 C 18.703125 -5.207031 17.46875 -7.058594 16.234375 -10.851562 C 15.175781 -14.027344 13.144531 -15.96875 9.351562 -15.96875 C 5.027344 -15.96875 1.851562 -13.320312 1.851562 -8.558594 C 1.851562 -2.292969 9.175781 1.410156 19.585938 1.410156 Z M 19.585938 1.410156 "/></g></g></g><g fill="#645df6" fill-opacity="1"><g transform="translate(157.809673, 219.749986)"><g><path d="M 12 1.410156 C 17.027344 1.410156 22.410156 -1.234375 22.410156 -6 C 22.410156 -7.761719 21.703125 -9 21.085938 -10.144531 C 18.4375 -15.085938 18.4375 -20.554688 18.4375 -23.996094 L 18.4375 -29.378906 C 18.4375 -33.039062 20.644531 -33.261719 22.851562 -33.4375 C 24.96875 -33.570312 27.085938 -33.65625 27.085938 -37.230469 C 27.085938 -40.183594 24.789062 -40.582031 22.585938 -40.582031 C 18.175781 -40.582031 18.878906 -41.199219 18.878906 -48.257812 C 18.878906 -52.757812 18.703125 -55.050781 15.792969 -55.050781 C 12.4375 -55.050781 11.820312 -51.785156 9.175781 -46.582031 C 5.292969 -38.996094 1.148438 -40.054688 1.148438 -36.878906 C 1.148438 -33.699219 3.265625 -33.4375 5.292969 -33.261719 C 7.058594 -32.996094 8.820312 -32.820312 8.820312 -30.4375 L 8.820312 -23.996094 C 8.820312 -14.734375 7.144531 -11.910156 5.824219 -9.617188 C 4.941406 -8.117188 4.234375 -6.617188 4.234375 -4.765625 C 4.234375 -0.441406 7.851562 1.410156 12 1.410156 Z M 12 1.410156 "/></g></g></g><g fill="#645df6" fill-opacity="1"><g transform="translate(185.68685, 219.749986)"><g><path d="M 29.644531 -41.289062 C 22.230469 -41.289062 21.261719 -33.613281 18.527344 -33.613281 C 17.113281 -33.613281 16.410156 -34.582031 16.410156 -36.613281 C 16.410156 -39.523438 15.96875 -41.289062 12.351562 -41.289062 C 7.058594 -41.289062 2.292969 -37.847656 2.292969 -34.054688 C 2.292969 -32.640625 2.824219 -31.582031 4.144531 -29.996094 C 6.175781 -27.613281 6.882812 -25.320312 6.882812 -20.910156 C 6.882812 -16.144531 6 -12.703125 3.96875 -9.617188 C 2.910156 -8.027344 2.292969 -6.175781 2.292969 -4.585938 C 2.292969 -0.882812 5.292969 1.410156 10.058594 1.410156 C 15.878906 1.410156 20.46875 -1.851562 20.46875 -6 C 20.46875 -7.324219 20.113281 -8.46875 19.054688 -10.144531 C 17.203125 -13.496094 16.410156 -16.761719 16.410156 -19.671875 C 16.410156 -26.554688 20.554688 -30.703125 24.613281 -30.703125 C 26.554688 -30.703125 28.496094 -29.644531 28.496094 -27.703125 C 28.496094 -26.554688 28.054688 -25.847656 28.011719 -24.347656 C 28.054688 -21.351562 30.570312 -19.851562 33.523438 -19.851562 C 37.316406 -19.851562 40.492188 -23.113281 40.492188 -28.496094 C 40.492188 -35.113281 37.140625 -41.289062 29.644531 -41.289062 Z M 29.644531 -41.289062 "/></g></g></g><g fill="#645df6" fill-opacity="1"><g transform="translate(227.590843, 219.749986)"><g><path d="M 22.230469 1.410156 C 37.140625 1.410156 43.933594 -9.175781 43.933594 -20.113281 C 43.933594 -33.4375 34.847656 -41.289062 23.820312 -41.289062 C 9.617188 -41.289062 2.207031 -30.347656 2.207031 -18.878906 C 2.207031 -6.703125 10.320312 1.410156 22.230469 1.410156 Z M 22.851562 -7.585938 C 17.644531 -7.585938 14.820312 -12.4375 14.820312 -18.878906 C 14.820312 -25.761719 18.613281 -31.761719 24.4375 -31.761719 C 29.554688 -31.761719 31.671875 -27.085938 31.671875 -21.351562 C 31.671875 -14.996094 29.203125 -7.585938 22.851562 -7.585938 Z M 22.851562 -7.585938 "/></g></g></g><g fill="#645df6" fill-opacity="1"><g transform="translate(273.729355, 219.749986)"><g><path d="M 12 1.410156 C 17.644531 1.410156 22.9375 -1.589844 22.9375 -8.117188 C 22.9375 -14.027344 23.46875 -17.46875 28.230469 -22.054688 C 28.9375 -22.671875 29.464844 -22.9375 30.082031 -22.9375 C 30.613281 -22.9375 31.140625 -22.496094 31.761719 -21.789062 C 36.964844 -15.703125 37.496094 -11.203125 37.496094 -7.941406 C 37.496094 -1.410156 42.699219 1.410156 47.992188 1.410156 C 53.816406 1.410156 58.757812 -0.617188 58.757812 -6.792969 C 58.757812 -13.496094 51.257812 -12.175781 39.082031 -28.40625 C 38.554688 -29.203125 38.199219 -29.820312 38.199219 -30.4375 C 38.199219 -31.230469 38.554688 -31.9375 39.347656 -32.996094 C 47.550781 -44.730469 58.757812 -45.699219 58.757812 -54.609375 C 58.757812 -59.019531 54.257812 -61.84375 49.050781 -61.84375 C 42.875 -61.84375 38.375 -58.757812 37.40625 -51.523438 C 36.789062 -46.230469 34.320312 -42.875 32.113281 -39.523438 C 31.40625 -38.375 30.703125 -38.023438 30.171875 -38.023438 C 29.730469 -38.023438 29.113281 -38.375 28.144531 -39.613281 C 22.671875 -46.050781 22.144531 -49.140625 21.613281 -52.84375 C 20.820312 -58.316406 18.613281 -61.84375 12.4375 -61.84375 C 7.5 -61.84375 1.589844 -57.785156 1.589844 -51.785156 C 1.589844 -42.433594 12.96875 -45.347656 21.613281 -32.996094 C 22.320312 -31.9375 22.671875 -31.230469 22.671875 -30.4375 C 22.671875 -29.820312 22.410156 -29.203125 21.96875 -28.40625 C 11.46875 -13.496094 1.589844 -14.203125 1.589844 -6.441406 C 1.589844 -1.324219 6.703125 1.410156 12 1.410156 Z M 12 1.410156 "/></g></g></g></svg>