<svg width="25" height="26" viewBox="0 0 25 26" fill="none" xmlns="http://www.w3.org/2000/svg">
<g clip-path="url(#clip0_473_1001)">
<path d="M21.106 1.0144H3.89403C2.02752 1.0144 0.514404 2.52752 0.514404 4.39403V21.606C0.514404 23.4725 2.02752 24.9856 3.89403 24.9856H21.106C22.9725 24.9856 24.4856 23.4725 24.4856 21.606V4.39403C24.4856 2.52752 22.9725 1.0144 21.106 1.0144Z" stroke="#9CB1C9" stroke-width="2" stroke-miterlimit="10"/>
<path d="M17.5103 4.94971H7.49485C5.813 4.94971 4.44958 6.31312 4.44958 7.99497V18.0104C4.44958 19.6923 5.813 21.0557 7.49485 21.0557H17.5103C19.1921 21.0557 20.5556 19.6923 20.5556 18.0104V7.99497C20.5556 6.31312 19.1921 4.94971 17.5103 4.94971Z" stroke="#9CB1C9" stroke-width="2" stroke-linecap="round" stroke-linejoin="round"/>
<path d="M7.61829 18.7561H15.4064M7.61829 16.3847H18.2304M14.5576 13.8332L12.0987 11.467C12.0354 11.4054 11.9505 11.3709 11.8621 11.3709C11.7737 11.3709 11.6889 11.4054 11.6255 11.467L9.17178 13.8332C9.12429 13.8814 9.0635 13.9143 8.99718 13.9277C8.93087 13.9411 8.86208 13.9343 8.79961 13.9084C8.73715 13.8824 8.68388 13.8383 8.64662 13.7819C8.60936 13.7254 8.58982 13.6591 8.59051 13.5915V4.94434H15.1337V13.5915C15.1334 13.658 15.1135 13.7231 15.0765 13.7784C15.0395 13.8338 14.987 13.8771 14.9256 13.9028C14.8642 13.9286 14.7966 13.9357 14.7311 13.9234C14.6657 13.911 14.6053 13.8796 14.5576 13.8332Z" stroke="#9CB1C9" stroke-width="2" stroke-linecap="round" stroke-linejoin="round"/>
</g>
<defs>
<clipPath id="clip0_473_1001">
<rect width="25" height="25" fill="white" transform="translate(0 0.5)"/>
</clipPath>
</defs>
</svg>
