<svg width="28" height="22" viewBox="0 0 28 22" fill="none" xmlns="http://www.w3.org/2000/svg">
<path d="M1 20.905V19.7397C1 15.2347 4.65198 11.5828 9.15692 11.5828C13.6619 11.5828 17.3138 15.2347 17.3138 19.7397V20.905" stroke="#9CB1C9" stroke-width="1.74791" stroke-linecap="round"/>
<path d="M14.9833 13.9133C14.9833 10.6955 17.5919 8.08691 20.8097 8.08691C24.0274 8.08691 26.636 10.6955 26.636 13.9133V14.4959" stroke="#9CB1C9" stroke-width="1.74791" stroke-linecap="round"/>
<path d="M9.15695 11.5827C11.7312 11.5827 13.818 9.49581 13.818 6.9216C13.818 4.34734 11.7312 2.2605 9.15695 2.2605C6.58269 2.2605 4.49585 4.34734 4.49585 6.9216C4.49585 9.49581 6.58269 11.5827 9.15695 11.5827Z" stroke="#9CB1C9" stroke-width="1.74791" stroke-linecap="round" stroke-linejoin="round"/>
<path d="M20.8097 8.08686C22.7404 8.08686 24.3055 6.52173 24.3055 4.59104C24.3055 2.66035 22.7404 1.09521 20.8097 1.09521C18.8789 1.09521 17.3138 2.66035 17.3138 4.59104C17.3138 6.52173 18.8789 8.08686 20.8097 8.08686Z" stroke="#9CB1C9" stroke-width="1.74791" stroke-linecap="round" stroke-linejoin="round"/>
</svg>
