<svg width="25" height="25" viewBox="0 0 25 25" fill="none" xmlns="http://www.w3.org/2000/svg">
<path d="M23.4375 6.25H18.75V5C18.75 3.67392 18.0915 2.40215 16.9194 1.46447C15.7473 0.526784 14.1576 0 12.5 0C10.8424 0 9.25268 0.526784 8.08058 1.46447C6.90848 2.40215 6.25 3.67392 6.25 5V6.25H1.5625C1.1481 6.25 0.750672 6.3817 0.457646 6.61612C0.16462 6.85054 0 7.16848 0 7.5V21.25C0 22.2446 0.49386 23.1984 1.37294 23.9017C2.25201 24.6049 3.4443 25 4.6875 25H20.3125C21.5557 25 22.748 24.6049 23.6271 23.9017C24.5061 23.1984 25 22.2446 25 21.25V7.5C25 7.16848 24.8354 6.85054 24.5424 6.61612C24.2493 6.3817 23.8519 6.25 23.4375 6.25ZM9.375 5C9.375 4.33696 9.70424 3.70107 10.2903 3.23223C10.8763 2.76339 11.6712 2.5 12.5 2.5C13.3288 2.5 14.1237 2.76339 14.7097 3.23223C15.2958 3.70107 15.625 4.33696 15.625 5V6.25H9.375V5ZM21.875 21.25C21.875 21.5815 21.7104 21.8995 21.4174 22.1339C21.1243 22.3683 20.7269 22.5 20.3125 22.5H4.6875C4.2731 22.5 3.87567 22.3683 3.58265 22.1339C3.28962 21.8995 3.125 21.5815 3.125 21.25V8.75H6.25V10C6.25 10.3315 6.41462 10.6495 6.70765 10.8839C7.00067 11.1183 7.3981 11.25 7.8125 11.25C8.2269 11.25 8.62433 11.1183 8.91735 10.8839C9.21038 10.6495 9.375 10.3315 9.375 10V8.75H15.625V10C15.625 10.3315 15.7896 10.6495 16.0826 10.8839C16.3757 11.1183 16.7731 11.25 17.1875 11.25C17.6019 11.25 17.9993 11.1183 18.2924 10.8839C18.5854 10.6495 18.75 10.3315 18.75 10V8.75H21.875V21.25Z" fill="#9CB1C9"/>
</svg>
